<svg width="39" height="13" fill="none" xmlns="http://www.w3.org/2000/svg"><path d="M.5 5.9H0v1h.5v-1Zm37.5.5.286.41.605-.422-.616-.406L38 6.4ZM33.069.826l-.175-.469-.937.35.174.468.938-.35ZM32.16 11.56l-.24.439.879.479.239-.44-.878-.478ZM.5 6.9H38v-1H.5v1Zm31.631-5.726c.26.696.757 1.393 1.323 2.033.57.646 1.236 1.261 1.865 1.792a28.884 28.884 0 0 0 2.391 1.808l.011.007.003.002a.013.013 0 0 1 .001 0L38 6.4l.275-.417-.003-.002a.655.655 0 0 0-.008-.006l-.036-.024a25.336 25.336 0 0 1-.65-.456 27.859 27.859 0 0 1-1.613-1.259 17.202 17.202 0 0 1-1.762-1.69c-.532-.603-.938-1.192-1.135-1.72l-.937.349ZM38 6.4l-.287-.41v.001l-.003.002L37.7 6l-.035.025-.133.095a30.925 30.925 0 0 0-2.024 1.618c-1.178 1.028-2.586 2.427-3.347 3.823l.878.479c.671-1.231 1.963-2.533 3.127-3.548a29.85 29.85 0 0 1 2.08-1.653l.03-.022c.004-.003.007-.004.008-.006h.002V6.81L38 6.4Z" fill="#E58411"/></svg>