<svg width="12" height="12" fill="none" xmlns="http://www.w3.org/2000/svg"><path d="M9.452 7.354a.642.642 0 0 0-.186.565l.519 2.87a.63.63 0 0 1-.263.63.642.642 0 0 1-.682.047l-2.584-1.348a.66.66 0 0 0-.292-.076h-.158a.47.47 0 0 0-.157.053l-2.584 1.353a.682.682 0 0 1-.415.065.649.649 0 0 1-.519-.742l.52-2.87a.653.653 0 0 0-.187-.57L.358 5.287A.63.63 0 0 1 .2 4.63a.655.655 0 0 1 .519-.437l2.899-.42a.649.649 0 0 0 .513-.356L5.41.796A.607.607 0 0 1 5.526.64L5.58.6a.392.392 0 0 1 .094-.076L5.737.5l.1-.04h.245c.22.022.412.153.513.35L7.89 3.415c.093.19.274.323.484.355l2.899.42c.245.036.45.205.53.438a.635.635 0 0 1-.168.66L9.452 7.354Z" fill="#F6973F"/></svg>