<svg width="16" height="16" viewBox="0 0 16 16" fill="none" xmlns="http://www.w3.org/2000/svg">
<path d="M12.6561 9.64199C12.4587 9.83275 12.3681 10.1086 12.413 10.3792L13.0905 14.1184C13.1477 14.4353 13.0136 14.7561 12.7476 14.9392C12.4869 15.1292 12.1402 15.152 11.8559 15L8.48061 13.2444C8.36324 13.1821 8.23292 13.1487 8.09956 13.1449H7.89303C7.82139 13.1555 7.75128 13.1783 7.68726 13.2133L4.31118 14.9772C4.14428 15.0608 3.95528 15.0905 3.77009 15.0608C3.31893 14.9757 3.0179 14.5471 3.09182 14.0949L3.77009 10.3556C3.81505 10.0828 3.72436 9.80539 3.52698 9.61159L0.775049 6.95157C0.544896 6.72889 0.464876 6.39448 0.570045 6.09276C0.672166 5.7918 0.932803 5.57216 1.24755 5.52276L5.03517 4.97479C5.32324 4.94515 5.57626 4.77035 5.70581 4.51195L7.3748 1.09953C7.41443 1.02352 7.46549 0.953604 7.52722 0.894324L7.59581 0.841123C7.63163 0.801603 7.67278 0.768923 7.71851 0.742323L7.80158 0.711922L7.93114 0.658722H8.25198C8.53853 0.688362 8.79078 0.859363 8.92262 1.11473L10.6137 4.51195C10.7357 4.76047 10.9727 4.93299 11.2463 4.97479L15.0339 5.52276C15.354 5.56836 15.6215 5.78876 15.7274 6.09276C15.8272 6.39753 15.7411 6.73193 15.5064 6.95157L12.6561 9.64199Z" fill="#F6B76F"/>
</svg>
