<svg width="21" height="15" fill="none" xmlns="http://www.w3.org/2000/svg"><path d="M1.304 6.349H.217v2.173h1.087V6.35Zm17.21 1.086.623.891 1.314-.918-1.34-.88-.597.907Zm-4.85-6.248-.38-1.02-2.037.76.38 1.018 2.036-.758ZM11.69 12.785l-.52.954 1.909 1.04.52-.954-1.909-1.04ZM1.304 8.522h17.21V6.35H1.304v2.173Zm10.322-6.577c.316.848.907 1.665 1.54 2.38A20.302 20.302 0 0 0 15.25 6.33a31.932 31.932 0 0 0 2.66 2.01l.004.002.001.001.598-.908.598-.908h-.002a.838.838 0 0 1-.008-.006l-.037-.025a26.983 26.983 0 0 1-.691-.484 29.78 29.78 0 0 1-1.721-1.344 18.156 18.156 0 0 1-1.859-1.782c-.56-.635-.95-1.217-1.13-1.7l-2.038.76Zm6.888 5.49a340.847 340.847 0 0 0-.623-.89h-.001l-.003.003-.012.008-.04.029-.149.107a34.15 34.15 0 0 0-2.238 1.789c-1.287 1.124-2.881 2.697-3.758 4.304l1.909 1.04c.68-1.247 2.022-2.61 3.279-3.706a31.92 31.92 0 0 1 2.25-1.787l.008-.005h.001l-.623-.892Z" fill="#1E1E1E"/></svg>