<svg width="21" height="15" fill="none" xmlns="http://www.w3.org/2000/svg"><path d="M19.696 6.349h1.087v2.173h-1.087V6.35ZM2.486 7.435l-.623.891-1.314-.918 1.34-.88.597.907Zm4.85-6.248.38-1.02 2.037.76-.38 1.018-2.036-.758ZM9.31 12.785l.52.954-1.909 1.04-.52-.954 1.909-1.04Zm10.386-4.263H2.486V6.35h17.21v2.173ZM9.374 1.945c-.316.848-.907 1.665-1.54 2.38A20.309 20.309 0 0 1 5.75 6.33a31.931 31.931 0 0 1-2.649 2.003l-.012.008-.004.002-.001.001-.598-.908-.598-.908h.002l.008-.006a10.278 10.278 0 0 0 .184-.125 29.756 29.756 0 0 0 2.265-1.728 18.16 18.16 0 0 0 1.859-1.782c.56-.635.95-1.217 1.13-1.7l2.038.76Zm-6.888 5.49.623-.89h.001l.003.003.012.008a10.403 10.403 0 0 1 .188.136A34.16 34.16 0 0 1 5.551 8.48c1.288 1.124 2.882 2.697 3.759 4.304L7.4 13.825c-.68-1.247-2.022-2.61-3.279-3.706a31.957 31.957 0 0 0-2.25-1.787l-.008-.005h-.001l.623-.892Z" fill="#1E1E1E"/></svg>