<svg width="16" height="16" fill="none" xmlns="http://www.w3.org/2000/svg"><path d="M12.656 9.642a.835.835 0 0 0-.243.737l.678 3.74a.82.82 0 0 1-.343.82.841.841 0 0 1-.892.061L8.48 13.244a.864.864 0 0 0-.381-.1h-.207a.618.618 0 0 0-.206.07L4.31 14.977c-.167.084-.356.114-.54.084a.845.845 0 0 1-.68-.966l.68-3.74a.849.849 0 0 0-.244-.743L.775 6.952a.819.819 0 0 1-.205-.86.855.855 0 0 1 .678-.57l3.787-.547a.847.847 0 0 0 .67-.463L7.376 1.1a.791.791 0 0 1 .152-.206l.069-.053A.511.511 0 0 1 7.72.742l.083-.03.13-.053h.32c.287.03.539.2.67.456l1.692 3.397a.847.847 0 0 0 .632.463l3.788.548c.32.045.587.266.693.57.1.305.014.639-.22.859l-2.85 2.69Z" fill="#F6B76F"/></svg>