<svg width="26" height="30" fill="none" xmlns="http://www.w3.org/2000/svg"><path d="M13.007.833c3.797 0 6.918 2.984 7.076 6.764h-.037a.71.71 0 0 1-.061.32h.22c1.725 0 3.53 1.195 4.254 4.08l.079.34 1.09 8.776c.783 5.597-2.28 7.95-6.457 8.05l-.28.004H7.147c-4.245 0-7.517-1.547-6.797-7.674l.049-.38L1.5 12.337C2.044 9.23 3.868 8.005 5.625 7.92l.195-.004h.11a.92.92 0 0 1 0-.32C6.09 3.817 9.21.833 13.008.833Zm-4.12 11.8c-.691 0-1.252.577-1.252 1.289 0 .711.56 1.288 1.252 1.288s1.252-.577 1.252-1.288l-.01-.162c-.077-.635-.603-1.127-1.242-1.127Zm8.201 0c-.691 0-1.252.577-1.252 1.289 0 .711.56 1.288 1.252 1.288s1.252-.577 1.252-1.288c0-.712-.56-1.289-1.252-1.289Zm-4.137-9.955c-2.725 0-4.935 2.202-4.935 4.919a.919.919 0 0 1 0 .32h9.933a.92.92 0 0 1-.062-.32c0-2.717-2.21-4.919-4.936-4.919Z" fill="#fff"/></svg>